<svg width="180" height="33" viewBox="0 0 180 33" fill="none" xmlns="http://www.w3.org/2000/svg">
<path d="M64.0241 23.3239V24.4759C64.0241 26.7799 63.2641 28.6679 61.7441 30.1399C60.2241 31.5959 58.2401 32.3239 55.7921 32.3239C53.2001 32.3239 51.0561 31.4839 49.3601 29.8039C47.6801 28.1239 46.8401 26.0599 46.8401 23.6119C46.8401 21.1799 47.6801 19.1239 49.3601 17.4439C51.0561 15.7479 53.1521 14.8999 55.6481 14.8999C57.2161 14.8999 58.6481 15.2599 59.9441 15.9799C61.2401 16.6999 62.2481 17.6679 62.9681 18.8839L60.5921 20.2519C60.1441 19.4519 59.4801 18.8119 58.6001 18.3319C57.7201 17.8359 56.7361 17.5879 55.6481 17.5879C53.8881 17.5879 52.4401 18.1639 51.3041 19.3159C50.1681 20.4679 49.6001 21.9079 49.6001 23.6359C49.6001 25.3639 50.1681 26.7959 51.3041 27.9319C52.4561 29.0679 53.9601 29.6359 55.8161 29.6359C57.3041 29.6359 58.5121 29.2919 59.4401 28.6039C60.3841 27.8999 60.9841 26.9639 61.2401 25.7959H55.6241V23.3239H64.0241Z" fill="white"/>
<path d="M75.8833 20.0119H78.4753V32.0119H75.8833V30.2839C74.9073 31.6439 73.5073 32.3239 71.6833 32.3239C70.0353 32.3239 68.6273 31.7159 67.4593 30.4999C66.2913 29.2679 65.7073 27.7719 65.7073 26.0119C65.7073 24.2359 66.2913 22.7399 67.4593 21.5239C68.6273 20.3079 70.0353 19.6999 71.6833 19.6999C73.5073 19.6999 74.9073 20.3719 75.8833 21.7159V20.0119ZM69.3793 28.7719C70.0993 29.4919 71.0033 29.8519 72.0913 29.8519C73.1793 29.8519 74.0833 29.4919 74.8033 28.7719C75.5233 28.0359 75.8833 27.1159 75.8833 26.0119C75.8833 24.9079 75.5233 23.9959 74.8033 23.2759C74.0833 22.5399 73.1793 22.1719 72.0913 22.1719C71.0033 22.1719 70.0993 22.5399 69.3793 23.2759C68.6593 23.9959 68.2993 24.9079 68.2993 26.0119C68.2993 27.1159 68.6593 28.0359 69.3793 28.7719Z" fill="white"/>
<path d="M84.0885 22.0279C84.7445 20.5399 85.9765 19.7959 87.7845 19.7959V22.6039C86.7925 22.5399 85.9285 22.7799 85.1925 23.3239C84.4565 23.8519 84.0885 24.7319 84.0885 25.9639V32.0119H81.4965V20.0119H84.0885V22.0279Z" fill="white"/>
<path d="M98.6411 15.2119H101.233V32.0119H98.6411V30.2839C97.6651 31.6439 96.2651 32.3239 94.4411 32.3239C92.7931 32.3239 91.3851 31.7159 90.2171 30.4999C89.0491 29.2679 88.4651 27.7719 88.4651 26.0119C88.4651 24.2359 89.0491 22.7399 90.2171 21.5239C91.3851 20.3079 92.7931 19.6999 94.4411 19.6999C96.2651 19.6999 97.6651 20.3719 98.6411 21.7159V15.2119ZM92.1371 28.7719C92.8571 29.4919 93.7611 29.8519 94.8491 29.8519C95.9371 29.8519 96.8411 29.4919 97.5611 28.7719C98.2811 28.0359 98.6411 27.1159 98.6411 26.0119C98.6411 24.9079 98.2811 23.9959 97.5611 23.2759C96.8411 22.5399 95.9371 22.1719 94.8491 22.1719C93.7611 22.1719 92.8571 22.5399 92.1371 23.2759C91.4171 23.9959 91.0571 24.9079 91.0571 26.0119C91.0571 27.1159 91.4171 28.0359 92.1371 28.7719Z" fill="white"/>
<path d="M106.294 27.1159C106.486 28.0279 106.926 28.7319 107.614 29.2279C108.302 29.7079 109.142 29.9479 110.134 29.9479C111.51 29.9479 112.542 29.4519 113.23 28.4599L115.366 29.7079C114.182 31.4519 112.43 32.3239 110.11 32.3239C108.158 32.3239 106.582 31.7319 105.382 30.5479C104.182 29.3479 103.582 27.8359 103.582 26.0119C103.582 24.2199 104.174 22.7239 105.358 21.5239C106.542 20.3079 108.062 19.6999 109.918 19.6999C111.678 19.6999 113.118 20.3159 114.238 21.5479C115.374 22.7799 115.942 24.2759 115.942 26.0359C115.942 26.3079 115.91 26.6679 115.846 27.1159H106.294ZM106.27 25.0039H113.326C113.15 24.0279 112.742 23.2919 112.102 22.7959C111.478 22.2999 110.742 22.0519 109.894 22.0519C108.934 22.0519 108.134 22.3159 107.494 22.8439C106.854 23.3719 106.446 24.0919 106.27 25.0039Z" fill="white"/>
<path d="M124.535 19.6999C125.911 19.6999 127.023 20.1399 127.871 21.0199C128.719 21.8999 129.143 23.1079 129.143 24.6439V32.0119H126.551V24.9079C126.551 24.0119 126.311 23.3239 125.831 22.8439C125.351 22.3639 124.695 22.1239 123.863 22.1239C122.951 22.1239 122.215 22.4119 121.655 22.9879C121.095 23.5479 120.815 24.4119 120.815 25.5799V32.0119H118.223V20.0119H120.815V21.5479C121.599 20.3159 122.839 19.6999 124.535 19.6999Z" fill="white"/>
<path d="M138.294 15.2119C139.878 15.2119 141.198 15.7399 142.254 16.7959C143.326 17.8519 143.862 19.1639 143.862 20.7319C143.862 22.2839 143.326 23.5959 142.254 24.6679C141.198 25.7239 139.878 26.2519 138.294 26.2519H134.862V32.0119H132.102V15.2119H138.294ZM138.294 23.6599C139.11 23.6599 139.782 23.3879 140.31 22.8439C140.838 22.2839 141.102 21.5799 141.102 20.7319C141.102 19.8839 140.838 19.1879 140.31 18.6439C139.782 18.0839 139.11 17.8039 138.294 17.8039H134.862V23.6599H138.294Z" fill="white"/>
<path d="M154.75 20.0119H157.342V32.0119H154.75V30.2839C153.774 31.6439 152.374 32.3239 150.55 32.3239C148.902 32.3239 147.494 31.7159 146.326 30.4999C145.158 29.2679 144.574 27.7719 144.574 26.0119C144.574 24.2359 145.158 22.7399 146.326 21.5239C147.494 20.3079 148.902 19.6999 150.55 19.6999C152.374 19.6999 153.774 20.3719 154.75 21.7159V20.0119ZM148.246 28.7719C148.966 29.4919 149.87 29.8519 150.958 29.8519C152.046 29.8519 152.95 29.4919 153.67 28.7719C154.39 28.0359 154.75 27.1159 154.75 26.0119C154.75 24.9079 154.39 23.9959 153.67 23.2759C152.95 22.5399 152.046 22.1719 150.958 22.1719C149.87 22.1719 148.966 22.5399 148.246 23.2759C147.526 23.9959 147.166 24.9079 147.166 26.0119C147.166 27.1159 147.526 28.0359 148.246 28.7719Z" fill="white"/>
<path d="M162.956 22.0279C163.612 20.5399 164.844 19.7959 166.652 19.7959V22.6039C165.66 22.5399 164.796 22.7799 164.06 23.3239C163.324 23.8519 162.956 24.7319 162.956 25.9639V32.0119H160.364V20.0119H162.956V22.0279Z" fill="white"/>
<path d="M179.175 32.0119H176.079L171.159 26.4679V32.0119H168.567V15.2119H171.159V25.3159L175.815 20.0119H178.983L173.703 25.8919L179.175 32.0119Z" fill="white"/>
<path fill-rule="evenodd" clip-rule="evenodd" d="M33.266 23.8978C33.2674 23.952 33.2681 24.0065 33.2681 24.0613C33.2681 25.5235 32.7636 26.7595 31.7546 27.7695C30.7606 28.7643 29.5182 29.2618 28.0273 29.2618H24.7969V32H38.0878L33.266 23.8978ZM28.0273 26.8198C28.7953 26.8198 29.4278 26.5636 29.9248 26.0511C30.4218 25.5235 30.6703 24.8602 30.6703 24.0613C30.6703 23.2624 30.4218 22.6067 29.9248 22.0942C29.4278 21.5666 28.7953 21.3029 28.0273 21.3029H24.7969V26.8198H28.0273Z" fill="white"/>
<path fill-rule="evenodd" clip-rule="evenodd" d="M30.6557 19.5116L19.0439 0L12.0211 11.8006C13.1686 11.2152 14.4541 10.9225 15.8778 10.9225C17.3555 10.9225 18.7051 11.2618 19.9265 11.9403C21.1479 12.6188 22.0979 13.531 22.7765 14.6769L20.5372 15.966C20.115 15.2121 19.4892 14.609 18.6599 14.1567C17.8305 13.6893 16.9032 13.4556 15.8778 13.4556C14.2191 13.4556 12.8544 13.9984 11.7838 15.084C10.7132 16.1696 10.1779 17.5266 10.1779 19.155C10.1779 20.7834 10.7132 22.1328 11.7838 23.2033C12.8695 24.2738 14.2869 24.8091 16.0361 24.8091C17.4385 24.8091 18.5769 24.4849 19.4515 23.8366C20.3412 23.1732 20.9067 22.2911 21.1479 21.1905H15.8552V18.8609H22.1992L28.0273 18.8609C29.0118 18.8609 29.8879 19.0778 30.6557 19.5116ZM22.1992 32V24.658C22.022 24.8749 21.83 25.0836 21.6229 25.284C20.1904 26.6561 18.3206 27.3422 16.0135 27.3422C13.5707 27.3422 11.5501 26.5506 9.95169 24.9674C8.3993 23.4152 7.60795 21.5151 7.57763 19.2671L0 32H22.1992Z" fill="white"/>
</svg>
