<svg width="1286" height="1080" viewBox="0 0 1286 1080" fill="none" xmlns="http://www.w3.org/2000/svg">
<path opacity="0.3" d="M407.041 397.047L642.761 0.977696L1033.3 657.174C1007.69 643.092 978.576 636.057 945.965 636.057L749.256 636.057H535.136H534.636V636.557V715.178V715.678H535.136H713.153C704.961 752.427 685.986 781.889 656.22 804.084C626.81 825.885 588.498 836.807 541.244 836.807C482.318 836.807 434.611 818.781 398.075 782.759C362.041 746.73 344.019 701.317 344.019 646.48C344.019 591.643 362.041 545.974 398.077 509.436C434.11 472.901 480.037 454.626 535.9 454.626C570.429 454.626 601.643 462.495 629.554 478.224L629.56 478.228C657.478 493.453 678.527 513.744 692.727 539.098L692.974 539.539L693.413 539.287L768.991 495.778L769.43 495.526L769.172 495.09C746.222 456.336 714.092 425.488 672.794 402.547C631.491 379.604 585.856 368.136 535.9 368.136C488.414 368.136 445.457 377.77 407.041 397.047ZM730.153 853.698L730.155 853.696C736.812 847.25 743.013 840.553 748.756 833.604V1079.5H0.87944L255.285 652.035C256.698 727.262 283.448 790.928 335.531 843.004L335.533 843.006C389.583 896.538 457.912 923.298 540.48 923.298C618.455 923.298 681.695 900.109 730.153 853.698ZM1009.65 746.024L1009.65 746.029C1026.32 763.221 1034.67 785.221 1034.67 812.071C1034.67 838.919 1026.32 861.176 1009.65 878.878C992.977 896.069 971.763 904.67 945.965 904.67H837.436V719.472H945.965C971.759 719.472 992.973 728.325 1009.65 746.024ZM1123.35 812.071C1123.35 810.855 1123.34 809.644 1123.32 808.437L1284.64 1079.5H837.436V988.085H945.965C996.41 988.085 1038.47 971.25 1072.12 937.574C1106.27 903.392 1123.35 861.547 1123.35 812.071Z" stroke="#24211F"/>
</svg>
