<svg width="24" height="24" viewBox="0 0 24 24" fill="none" xmlns="http://www.w3.org/2000/svg">
<path d="M23.462 18.9828L19.7555 15.2676C19.0173 14.5306 17.7947 14.553 17.0308 15.319L15.1634 17.1901C15.0455 17.125 14.9234 17.0569 14.795 16.9847C13.6158 16.3298 12.0019 15.4323 10.3035 13.7289C8.6002 12.0219 7.70385 10.4018 7.04847 9.21918C6.97932 9.09389 6.91305 8.97309 6.84762 8.85838L8.10086 7.60416L8.717 6.98587C9.48214 6.21878 9.50324 4.9938 8.76672 4.25471L5.06029 0.539059C4.32376 -0.198998 3.10065 -0.176608 2.33551 0.590474L1.29091 1.64345L1.31946 1.67185C0.96919 2.1198 0.676496 2.63644 0.458682 3.19358C0.257898 3.7239 0.132891 4.22997 0.0757315 4.73707C-0.413678 8.80357 1.4404 12.5201 6.47212 17.5632C13.4275 24.5339 19.0326 24.0073 19.2744 23.9816C19.801 23.9185 20.3058 23.7924 20.8187 23.5927C21.3697 23.377 21.8849 23.084 22.3315 22.7337L22.3543 22.754L23.4126 21.7154C24.1762 20.9485 24.1981 19.7231 23.462 18.9828Z" fill="#24211F"/>
</svg>
